<svg xmlns="http://www.w3.org/2000/svg" viewBox="0 0 1600 1000" role="img" aria-label="Ciudad inteligente con paneles solares y aerogeneradores">
  <defs>
    <linearGradient id="sky" x1="0" x2="1" y1="0" y2="1">
      <stop offset="0" stop-color="#092b2a"/>
      <stop offset=".45" stop-color="#0b3d3f"/>
      <stop offset="1" stop-color="#07110f"/>
    </linearGradient>
    <linearGradient id="panel" x1="0" x2="1">
      <stop offset="0" stop-color="#1da7c8"/>
      <stop offset="1" stop-color="#5ee27a"/>
    </linearGradient>
    <filter id="glow" x="-50%" y="-50%" width="200%" height="200%">
      <feGaussianBlur stdDeviation="14" result="blur"/>
      <feMerge>
        <feMergeNode in="blur"/>
        <feMergeNode in="SourceGraphic"/>
      </feMerge>
    </filter>
  </defs>
  <rect width="1600" height="1000" fill="url(#sky)"/>
  <circle cx="1280" cy="190" r="92" fill="#f5c84c" opacity=".96" filter="url(#glow)"/>
  <path d="M0 680 C220 610 360 720 570 650 C760 590 930 665 1115 620 C1310 575 1440 625 1600 575 L1600 1000 L0 1000 Z" fill="#0a241f"/>
  <path d="M0 770 C260 690 420 820 650 730 C850 650 1040 760 1250 690 C1420 635 1510 680 1600 640 L1600 1000 L0 1000 Z" fill="#061714"/>
  <g opacity=".9">
    <rect x="680" y="345" width="112" height="330" rx="4" fill="#123b3d"/>
    <rect x="815" y="285" width="146" height="390" rx="4" fill="#154d4f"/>
    <rect x="985" y="388" width="124" height="287" rx="4" fill="#0f3436"/>
    <rect x="1135" y="325" width="98" height="350" rx="4" fill="#125047"/>
    <g fill="#69e6ef" opacity=".62">
      <rect x="704" y="380" width="18" height="22"/><rect x="748" y="380" width="18" height="22"/>
      <rect x="704" y="438" width="18" height="22"/><rect x="748" y="438" width="18" height="22"/>
      <rect x="846" y="330" width="22" height="26"/><rect x="902" y="330" width="22" height="26"/>
      <rect x="846" y="405" width="22" height="26"/><rect x="902" y="405" width="22" height="26"/>
      <rect x="1014" y="430" width="20" height="23"/><rect x="1065" y="430" width="20" height="23"/>
      <rect x="1160" y="365" width="17" height="24"/><rect x="1200" y="365" width="17" height="24"/>
    </g>
  </g>
  <g transform="translate(185 570)">
    <polygon points="0,86 330,22 520,124 170,194" fill="#153532"/>
    <polygon points="42,78 328,26 475,106 172,164" fill="url(#panel)"/>
    <g stroke="#09211f" stroke-width="7" opacity=".65">
      <path d="M97 67 L224 151"/><path d="M170 53 L298 137"/><path d="M245 39 L372 123"/>
      <path d="M85 101 L390 45"/><path d="M142 134 L444 78"/>
    </g>
  </g>
  <g transform="translate(1240 405)" stroke="#dffcf7" stroke-linecap="round">
    <line x1="0" y1="245" x2="0" y2="55" stroke-width="12"/>
    <circle cx="0" cy="52" r="15" fill="#dffcf7" stroke="none"/>
    <path d="M0 52 L-96 5" stroke-width="10"/>
    <path d="M0 52 L91 7" stroke-width="10"/>
    <path d="M0 52 L-6 158" stroke-width="10"/>
  </g>
  <g fill="#5ee27a">
    <circle cx="122" cy="706" r="42"/><rect x="116" y="738" width="12" height="58" fill="#7b5635"/>
    <circle cx="1378" cy="720" r="45"/><rect x="1372" y="755" width="12" height="54" fill="#7b5635"/>
    <circle cx="1460" cy="690" r="34"/><rect x="1455" y="718" width="10" height="46" fill="#7b5635"/>
  </g>
  <path d="M560 820 C760 740 1020 740 1245 820" fill="none" stroke="#55d6e8" stroke-width="12" opacity=".34"/>
  <rect y="880" width="1600" height="120" fill="#03100e" opacity=".82"/>
</svg>
